<svg xmlns="http://www.w3.org/2000/svg">
  <defs>
    <g id="cm-twitter">
      <path fill="#1da1f2" d="M154.34,300C247.22,300,298,223.07,298,156.34c0-2.19,0-4.37-.15-6.53a102.67,102.67,0,0,0,25.2-26.14,100.8,100.8,0,0,1-29,7.94,50.63,50.63,0,0,0,22.21-27.93,101.34,101.34,0,0,1-32.07,12.26A50.55,50.55,0,0,0,198.14,162,143.4,143.4,0,0,1,94.06,109.23a50.54,50.54,0,0,0,15.64,67.42,50.18,50.18,0,0,1-22.92-6.32V171a50.51,50.51,0,0,0,40.51,49.5,50.48,50.48,0,0,1-22.8.87,50.55,50.55,0,0,0,47.18,35.07A101.36,101.36,0,0,1,89,278.07a105,105,0,0,1-12-.73A143,143,0,0,0,154.34,300"/>
    </g>

    <g id="cm-github">
      <path fill="#181616" d="M200.61,101.33a102.54,102.54,0,0,0-32.42,199.82c5.13,1,7-2.22,7-4.93,0-2.45-.09-10.52-.14-19.09-28.52,6.2-34.54-12.1-34.54-12.1-4.67-11.85-11.39-15-11.39-15-9.3-6.36.7-6.23.7-6.23,10.3.72,15.72,10.56,15.72,10.56,9.15,15.68,24,11.15,29.84,8.53.92-6.63,3.58-11.15,6.51-13.71-22.78-2.6-46.72-11.39-46.72-50.68A39.68,39.68,0,0,1,145.75,171c-1.07-2.58-4.58-13,1-27.13,0,0,8.61-2.76,28.2,10.51a97.26,97.26,0,0,1,51.35,0c19.57-13.27,28.17-10.51,28.17-10.51,5.58,14.12,2.07,24.55,1,27.13A39.62,39.62,0,0,1,266,198.5c0,39.39-24,48.06-46.82,50.59,3.68,3.19,7,9.43,7,19,0,13.72-.12,24.76-.12,28.14,0,2.73,1.84,5.92,7,4.92a102.55,102.55,0,0,0-32.47-199.81Z"/>
      <path fill="#181616" d="M136.91,248.54c-.22.51-1,.66-1.76.31s-1.16-1-.92-1.54,1-.67,1.77-.32,1.17,1,.91,1.55Zm-1.26-.94"/>
      <path fill="#181616" d="M141.07,253.17c-.49.46-1.45.24-2.1-.47a1.57,1.57,0,0,1-.3-2.13c.5-.45,1.43-.24,2.1.47s.81,1.67.3,2.13Zm-1-1"/>
      <path fill="#181616" d="M145.11,259.08c-.63.43-1.66,0-2.29-.89s-.63-2,0-2.44,1.65,0,2.29.86.63,2,0,2.47Zm0,0"/>
      <path fill="#181616" d="M150.65,264.78c-.57.62-1.76.46-2.64-.39s-1.14-2-.58-2.62,1.77-.45,2.65.39,1.16,2,.57,2.62Zm0,0"/>
      <path fill="#181616" d="M158.29,268.1c-.25.8-1.41,1.16-2.57.82s-1.91-1.29-1.68-2.1,1.4-1.19,2.57-.83,1.92,1.29,1.68,2.11Zm0,0"/>
      <path fill="#181616" d="M166.68,268.71c0,.84-1,1.55-2.18,1.56s-2.22-.66-2.23-1.49,1-1.54,2.19-1.57,2.22.66,2.22,1.5Zm0,0"/>
      <path fill="#181616" d="M174.49,267.38c.14.83-.71,1.67-1.92,1.9s-2.29-.29-2.44-1.11.71-1.69,1.9-1.91,2.3.28,2.46,1.12Zm0,0"/>
    </g>

    <g id="cm-codepen">
      <path fill="#231f20" d="M199.55,99.55a100,100,0,1,0,100,100A100,100,0,0,0,199.55,99.55Zm0,183.57a83.58,83.58,0,1,1,83.57-83.57A83.67,83.67,0,0,1,199.55,283.12Z"/>
      <path fill="#231f20" d="M261.33,180c0-.08,0-.16,0-.23l-.09-.45-.09-.26c0-.13-.08-.26-.13-.38l-.12-.26-.18-.36-.15-.24-.23-.33-.18-.23c-.09-.09-.17-.19-.27-.28a2.08,2.08,0,0,0-.21-.21l-.3-.25-.24-.19-.09-.06-56.52-37.68a5.31,5.31,0,0,0-5.89,0l-56.52,37.68-.09.06-.24.19-.3.25-.21.21-.26.28-.19.23-.22.33-.15.24a3,3,0,0,0-.18.36,2.06,2.06,0,0,0-.12.26c-.05.12-.1.25-.14.38a2.58,2.58,0,0,0-.08.26,3.58,3.58,0,0,0-.09.45,1.55,1.55,0,0,0-.05.23,5.12,5.12,0,0,0,0,.69v37.68a5.32,5.32,0,0,0,0,.69,1.55,1.55,0,0,0,.05.23,3.58,3.58,0,0,0,.09.45,2.41,2.41,0,0,0,.08.25c0,.13.09.26.14.39a2.06,2.06,0,0,0,.12.26,3,3,0,0,0,.18.36l.15.24.22.32a2.11,2.11,0,0,0,.19.23,3.58,3.58,0,0,0,.26.29l.21.21.3.25.24.18.09.07,56.52,37.68a5.32,5.32,0,0,0,5.89,0L259,222.81l.09-.07.24-.18.3-.25c.08-.07.14-.14.21-.21a3.71,3.71,0,0,0,.27-.29l.18-.23c.08-.1.15-.21.23-.32l.15-.24.18-.36.12-.26c0-.13.09-.26.13-.39l.09-.25.09-.45c0-.07,0-.15,0-.23a5.34,5.34,0,0,0,.05-.69V180.71A5.09,5.09,0,0,0,261.33,180ZM204.86,153l41.64,27.76-18.6,12.44-23-15.41Zm-10.63,0v24.79l-23,15.41-18.6-12.44Zm-45.89,37.7,13.3,8.89-13.3,8.89Zm45.89,55.48L152.6,218.38l18.6-12.44,23,15.41Zm5.32-34-18.8-12.57L199.55,187l18.79,12.57Zm5.31,34V221.35l23-15.41,18.6,12.44Zm45.89-37.7-13.29-8.89,13.29-8.89Z"/>
    </g>

    <g id="cm-linkedin">
      <path fill="#0065a1" d="M285.2,100H114.8c-8.1,0-14.8,6.5-14.8,14.4v171.2c0,8,6.6,14.4,14.8,14.4h170.4c8.2,0,14.8-6.5,14.8-14.4V114.4C300,106.5,293.4,100,285.2,100z"/>
      <path fill="#ffffff" d="M129.7,175h29.7v95.4h-29.7V175z M144.5,127.5c9.5,0,17.2,7.7,17.2,17.2c0,9.5-7.7,17.2-17.2,17.2c-9.5,0-17.2-7.7-17.2-17.2C127.3,135.2,135,127.5,144.5,127.5"/>
      <path fill="#ffffff" d="M177.9,175h28.5v13h0.4c4-7.5,13.6-15.4,28.1-15.4c30,0,35.6,19.8,35.6,45.5v52.4h-29.6V224c0-11.1-0.2-25.3-15.4-25.3c-15.4,0-17.8,12.1-17.8,24.5v47.2h-29.6V175z"/>
    </g>
  </defs>
</svg>
