<svg width="1600" height="1600" viewBox="0 0 1600 1600">
  <g transform="translate(0,1600) scale(0.1,-0.1)" fill="#000000" stroke="none">
    <path d="M7575 15669 c-2269 -123 -4354 -1241 -5730 -3074 -767 -1021 -1273
      -2246 -1449 -3510 -337 -2417 458 -4800 2174 -6515 1266 -1267 2914 -2045
      4685 -2214 2304 -220 4545 583 6175 2214 1267 1266 2045 2914 2214 4685 257
      2690 -886 5276 -3049 6900 -1430 1074 -3212 1612 -5020 1514z m-2372 -3888
      c502 -90 873 -276 1161 -583 189 -200 306 -427 357 -692 18 -93 19 -103 3
      -155 -37 -130 -128 -247 -228 -296 -164 -79 -418 -73 -570 14 -141 82 -247
      254 -286 466 -6 33 -42 233 -80 444 -39 211 -72 386 -74 388 -7 8 -147 42
      -241 60 -129 24 -447 24 -568 0 -668 -135 -1143 -685 -1311 -1519 -49 -243
      -60 -380 -61 -708 0 -301 6 -395 41 -610 129 -790 539 -1342 1151 -1546 344
      -115 773 -118 1109 -8 128 41 314 137 395 202 177 142 351 356 602 737 173
      265 297 414 502 604 367 342 802 581 1215 668 122 26 436 25 575 -1 442 -83
      701 -304 850 -728 l28 -78 94 91 c378 361 800 605 1223 705 81 20 142 27 270
      31 411 13 730 -95 946 -319 181 -188 276 -412 329 -773 28 -193 34 -501 35
      -1742 0 -1012 2 -1214 14 -1225 7 -8 96 -31 197 -52 101 -21 214 -45 252 -53
      l67 -15 0 -129 0 -129 -1085 0 -1085 0 0 129 0 130 73 16 c39 8 163 35 275 59
      111 23 205 46 210 50 13 13 15 2506 2 2636 -42 419 -163 660 -383 766 -94 45
      -163 57 -277 51 -109 -5 -181 -27 -312 -94 -298 -152 -595 -435 -694 -660 -59
      -132 -57 -73 -51 -1451 2 -694 6 -1265 9 -1267 4 -4 491 -105 505 -105 2 0 3
      -58 3 -130 l0 -130 -1085 0 -1085 0 0 130 c0 72 1 130 3 130 15 1 550 120 554
      123 2 3 7 540 10 1194 6 1223 2 1407 -33 1614 -51 297 -178 508 -357 593 -208
      99 -408 73 -682 -89 -320 -188 -597 -500 -645 -725 -9 -41 -11 -382 -8 -1327
      2 -699 6 -1275 10 -1279 4 -3 116 -28 248 -55 133 -27 245 -51 250 -54 6 -4
      10 -62 10 -131 l0 -124 -1090 0 -1090 0 0 129 0 129 28 6 c15 4 141 31 280 60
      139 30 255 56 256 57 2 2 7 329 10 727 5 505 4 722 -3 722 -6 0 -47 -20 -92
      -45 -517 -286 -1211 -367 -1878 -219 -831 185 -1439 760 -1695 1606 -160 529
      -191 1186 -80 1711 111 528 336 962 684 1321 389 401 883 655 1450 745 181 29
      180 29 465 26 213 -2 281 -6 378 -24z"/>
  </g>
</svg>
